PathFileType	4	(X/Y/Z)	Patient4_TMGait_0pt2_03_left_23.trc.trc
DataRate	CameraRate	NumFrames	NumMarkers	Units	OrigDataRate	OrigDataStartFrame	OrigNumFrames
48.780487804878	48.780487804878	5	33	mm	48.780487804878	36	       141
Frame#	Time	Sacral			L.Shoulder			Chest			R.Shoulder			Neck			R.ASIS			L.ASIS			R.Thigh.Superior			R.Thigh.Lateral			R.Thigh.Inferior			R.Patella			L.Thigh.Superior			L.Thigh.Lateral			L.Thigh.Inferior			L.Patella			L.Shank.Superior			L.Shank.Lateral			L.Shank.Inferior			R.Shank.Superior			R.Shank.Lateral			R.Shank.Inferior			R.Heel			R.Midfoot.Superior			R.Midfoot.Lateral			R.Toe			L.Heel			L.Midfoot.Lateral			L.Midfoot.Superior			L.Toe			L.Elbow			L.Wrist			R.Elbow			R.Wrist			
		X1	Y1	Z1	X2	Y2	Z2	X3	Y3	Z3	X4	Y4	Z4	X5	Y5	Z5	X6	Y6	Z6	X7	Y7	Z7	X8	Y8	Z8	X9	Y9	Z9	X10	Y10	Z10	X11	Y11	Z11	X12	Y12	Z12	X13	Y13	Z13	X14	Y14	Z14	X15	Y15	Z15	X16	Y16	Z16	X17	Y17	Z17	X18	Y18	Z18	X19	Y19	Z19	X20	Y20	Z20	X21	Y21	Z21	X22	Y22	Z22	X23	Y23	Z23	X24	Y24	Z24	X25	Y25	Z25	X26	Y26	Z26	X27	Y27	Z27	X28	Y28	Z28	X29	Y29	Z29	X30	Y30	Z30	X31	Y31	Z31	X32	Y32	Z32	X33	Y33	Z33	

36	48.817500000000	860.409075254517	1014.994643915116	531.416661086963	1021.949324464421	1428.511114284732	317.912828594475	1151.097516786301	1353.015061376462	454.910066554512	1112.390627845498	1433.026933701756	639.776614718156	1031.916196768039	1491.793359851647	475.711096213139	1098.227312047232	933.786067467400	614.465612973751	1047.082024784480	957.117937255047	345.663307814855	1090.524872696095	721.407218381211	584.500188818083	995.627617863891	627.218548387114	657.801327967939	1046.087946992346	561.873902057128	571.224834595667	1026.759660149758	473.659628942163	580.786755542996	1113.499820945237	761.342879486733	372.155816819260	1033.665049869525	627.140914306328	303.561807886752	1139.901981016788	570.026811337183	362.003820243529	1150.059575966320	500.218639571386	363.682508296033	1128.161163169246	427.861681893215	351.356110972514	1046.506820342423	310.853450480206	293.702695152215	1108.288785118356	198.038392979963	353.171074424798	977.311452708814	393.995012669975	592.468600213589	889.435337417108	310.454822897599	664.084537382617	901.341241975683	208.197628605426	599.721605084357	732.865595308441	64.857835465612	581.980156588451	909.648321756026	99.313658270721	609.223708565826	818.629110726177	47.276372814799	651.289783613206	1024.726105607332	37.840964271645	630.918506472180	989.798901295345	39.016318944237	383.756251751433	1065.262618436513	36.534899379137	304.708614246440	1147.951196045907	97.786008426823	333.266274197762	1276.361746169838	46.380396327342	306.211929152841	880.000763909491	1103.782055500800	227.382595977830	856.514683965220	843.822632695191	263.720300887682	1272.038622415374	1126.247721936380	739.569255997256	1516.289608369903	1145.942981881398	664.216955394263	
37	48.838000000000	861.284389795827	1015.658729275356	524.452247571913	1024.400540981104	1429.302109562025	312.817214114397	1152.143631800317	1354.085392489602	451.262111284415	1111.205163853291	1434.121372789195	635.625386629098	1032.433233657770	1492.646013288562	470.867038916720	1098.351768315212	934.644164485903	610.029769117430	1049.810463872398	957.655687116956	340.774581904442	1089.713940216230	722.044296337526	581.559472317946	993.542533736565	628.947999911562	654.863221646166	1044.440367483366	562.578754656196	569.368262462238	1024.579682211057	474.606276891169	579.323333954240	1115.395519134660	761.445810354891	368.478443969093	1035.726912379791	627.009334561800	299.999848411483	1141.362146207500	569.762888056259	359.338906586851	1151.265153686611	499.544021551571	361.524649754037	1128.583337414974	427.132440261097	349.628891662167	1046.121170687112	310.654657020421	292.246724340744	1105.989224104457	197.589577148487	352.809858314642	974.907863398372	395.233351059020	591.303186293968	886.229015004702	312.530879329605	662.910650456452	898.391835143439	209.621358065973	599.514410550048	729.300781724052	67.134726859565	582.096779698266	906.473841191738	99.809609799516	609.465828748402	814.955551980800	48.467934878000	651.384473785149	1020.810181799026	37.649489019367	630.996855815460	985.869276226263	39.107880280349	383.777590907680	1061.331165801014	36.624025212373	304.771254890806	1144.119622996318	97.724684852693	333.374291335717	1272.519795557515	45.915073997191	306.205853977385	888.019838621932	1102.733002585029	218.257769239088	873.169030502251	841.569673387629	249.547618027703	1265.780470139773	1123.645942993045	735.589227136931	1512.351321964571	1130.485778531856	664.567775756520	
38	48.858500000000	862.202126330782	1016.251452430677	517.424892365327	1026.855834471934	1430.141466634124	307.767933839170	1153.104508905539	1355.182507950594	447.691954259942	1109.833212009344	1435.141481347893	631.546069192060	1032.870275204386	1493.484497909709	466.073308437067	1098.471413136955	935.524979480228	605.552510375705	1052.583797166378	958.126084697544	335.855126568261	1089.030806091630	722.712515515192	578.608862645824	991.620024181976	630.681705898602	651.884179547261	1043.038912518962	563.286033692429	567.515280001534	1022.718740880252	475.471295102709	577.903442220439	1117.303420250536	761.439670929943	364.716491848603	1037.691516265666	626.780321025951	296.446021827988	1142.739912170517	569.402471054619	356.625813815288	1152.325490226906	498.793906711869	359.334394993575	1128.877874245514	426.344058581583	347.869359262344	1045.600341829914	310.384188821106	290.791220940719	1103.642332568210	197.124327758557	352.405332806296	972.738591638005	396.436375083455	590.155631524282	883.169453322715	314.627506362225	661.722037960931	895.564699633187	211.036055196222	599.321460785827	725.773494315505	69.401907283605	582.199908870086	903.291146466890	100.156387034494	609.558245728706	811.303651789417	49.626307098298	651.479967410900	1016.921082756355	37.500984327952	631.080324301128	981.893940428443	39.218937014341	383.799129681589	1057.360920648882	36.701243694092	304.841766087800	1140.267817916460	97.633955962026	333.486713917742	1268.643844688747	45.384001939100	306.221898219863	896.723596234409	1101.636205476852	209.019899894064	891.307540107781	839.640308275630	235.430276245205	1258.530062076216	1120.608344868100	731.675180960461	1506.719779197075	1113.125154845531	665.568140572958	
39	48.879000000000	863.145956355606	1016.784138486851	510.366336948596	1029.311768212235	1431.021026789875	302.755551912869	1153.980234828256	1356.292464227192	444.179392135454	1108.298018503889	1436.074055799611	627.521804123822	1033.237067633730	1494.306580518497	461.307476710763	1098.566072430829	936.427665112595	601.038511154089	1055.368151818709	958.532367424703	330.920602526565	1088.524082207618	723.406254805289	575.645091313580	989.956775076898	632.370140803164	648.864298967599	1042.008166814259	563.968511272579	565.661766031514	1021.338120094310	476.187580784882	576.549699501675	1119.194442980668	761.336911251152	360.864986967858	1039.515435169619	626.477334637585	292.901221636178	1143.996022459768	568.959981068206	353.848499149568	1153.207342957473	497.990302447055	357.094625368039	1129.017366942388	425.514019222316	346.063304138581	1044.919478857049	310.053247585512	289.320077733639	1101.234030183144	196.648936352189	351.945317121597	970.919147943813	397.557974404574	589.028912226909	880.346648767701	316.735926388389	660.519296537018	892.915441460851	212.428639846166	599.139495862667	722.301661997009	71.687014172816	582.280631976251	900.128041469723	100.360260183209	609.526462743977	807.677142892331	50.763514338393	651.564985592040	1013.054088979659	37.395018892064	631.165123350492	977.879982554304	39.341817772544	383.812040637514	1053.356397434942	36.762991915755	304.906672802126	1136.392621648465	97.519858613498	333.587259154499	1264.735099475735	44.818963842125	306.246473716432	906.193404260955	1100.498105043731	199.682601260178	910.939666831510	838.119783580715	221.530636502049	1250.229131569557	1117.170707819584	727.852392360572	1499.028105283246	1093.877301997552	667.151343782563	
40	48.899500000000	864.085933623054	1017.264292606825	503.304485819619	1031.771968696457	1431.926508938578	297.775781260311	1154.774754760436	1357.393407750986	440.711809009267	1106.624489119687	1436.904522494759	623.539888567736	1033.545453069154	1495.106199327416	456.552225127238	1098.606158758064	937.344319999610	596.495343518710	1058.121847701495	958.878305230313	325.988698104343	1088.262852578532	724.120619275101	572.667644498273	988.680246026349	633.950772468729	645.801841522135	1041.516930071954	564.594462104289	563.802469294744	1020.641169332640	476.680706258132	575.281279829904	1121.027749095358	761.146591801817	356.924683752450	1041.156940542190	626.122651136527	289.360102178832	1145.087827556249	568.450087875484	350.998434515792	1153.877591691912	497.154197214084	354.791449562080	1128.974036723277	424.658187874268	344.198921273859	1044.057030192247	309.671367691051	287.819005520939	1098.747594104814	196.170097431676	351.423710012183	969.606753098944	398.547263506779	587.922187185428	877.890015091035	318.854239111848	659.300277134791	890.524054106966	213.796263351860	598.963361627402	718.917493204099	74.063837956810	582.331735783765	897.034006838168	100.458703608770	609.423216340114	804.086940957935	51.923101019686	651.628172717060	1009.197987580135	37.324392449735	631.244271038135	973.836402724587	39.466972041905	383.810036371349	1049.324059448197	36.806328880755	304.955017170650	1132.491050020959	97.391027920262	333.662279875244	1260.796222497840	44.254980276384	306.269156455248	916.497928752071	1099.336682690477	190.275981065378	932.033555294371	837.092612898539	208.009444873098	1240.850971965193	1113.397157991187	724.143634174286	1488.924225576934	1072.864718229992	669.233635665583	
